<svg width="59" height="45" viewBox="0 0 59 45" fill="none" xmlns="http://www.w3.org/2000/svg">
<path d="M27.5436 5.34256L15.6002 18.3575C15.129 18.8697 15.1495 19.663 15.6514 20.1551C18.7755 23.218 23.8458 23.218 26.97 20.1551L30.2273 16.9616C30.6575 16.5398 31.2003 16.3089 31.7535 16.2687C32.45 16.2084 33.167 16.4394 33.6996 16.9616L51.7889 34.5459L59 28.9221V0L47.5278 6.42714L45.0899 4.8304C43.4715 3.77594 41.5766 3.21357 39.6304 3.21357H32.4193C32.3066 3.21357 32.1837 3.21357 32.071 3.22361C30.3399 3.31399 28.7113 4.07721 27.5436 5.34256ZM11.9434 15.1339L22.883 3.21357H18.8267C16.2148 3.21357 13.7155 4.22785 11.8717 6.03548L11.4722 6.42714L0 0V28.9221L16.0201 42.0074C18.376 43.9355 21.3465 44.99 24.4092 44.99H26.0174L25.3003 44.287C24.3375 43.343 24.3375 41.8166 25.3003 40.8826C26.2632 39.9487 27.8201 39.9386 28.7727 40.8826L32.9724 45H33.8943C35.8507 45 37.7661 44.5682 39.5075 43.7648L36.7726 41.0734C35.8097 40.1294 35.8097 38.603 36.7726 37.6691C37.7354 36.7351 39.2924 36.7251 40.245 37.6691L43.5227 40.8826L45.3153 39.1252C46.2269 38.2314 46.4932 36.936 46.0938 35.8012L31.9686 22.0632L30.4424 23.5595C25.3925 28.5104 17.2186 28.5104 12.1687 23.5595C9.81285 21.2497 9.72066 17.5441 11.9434 15.1239V15.1339Z" fill="black"/>
</svg>
