<svg width="64" height="118" viewBox="0 0 64 118" fill="none" xmlns="http://www.w3.org/2000/svg">
<path d="M52.5001 48.6062C50.1799 26.1107 33.8075 7.44979 11.5864 1.97364C8.78096 1.28224 5.02728 0.555449 3.24315 0.357833L0.00015203 0L0.00068551 4.854L0.00121091 9.70798L5.16555 10.5404C19.7898 12.8971 31.4476 21.2789 38.1068 34.2241C45.8816 49.336 43.8692 67.2491 32.8667 80.8704L31.8221 82.1642L27.7352 78.1854L23.6478 74.207L25.0442 72.2336C30.7144 64.2179 32.5632 53.5347 29.8451 44.4951C26.2758 32.6255 15.1711 23.3143 2.51637 21.5802L0.00015203 21.2354V25.3627V29.4904L2.94862 30.0686C15.3761 32.5072 24.372 44.9682 22.3431 56.9329C21.7901 60.1929 18.4326 67.9318 17.5713 67.9318C17.3621 67.9318 15.4254 66.1964 13.2694 64.0756L9.34934 60.2188L10.1048 57.9944C12.5796 50.7036 8.85246 43.5718 1.48763 41.5086L0.00015203 41.0917V53.4768C0.00015203 60.2882 0.0769618 65.8616 0.171254 65.8616C0.264486 65.8616 1.48287 65.4812 2.87765 65.017L5.41452 64.1729L9.44576 68.1108C13.3075 71.8843 13.4336 72.0814 12.4329 72.807C10.3352 74.3296 5.74507 76.2627 2.9089 76.8196L0.00015203 77.3904V81.4593C0.00015203 83.6703 -0.0242194 84.8249 0.544181 85.2917C1.18198 85.815 2.56563 85.4708 5.56708 84.7794C9.7101 83.8245 13.1618 82.3573 16.773 80.0149L19.6923 78.1222L23.7516 82.1026L27.811 86.0825L26.4866 87.1083C20.1601 92.0074 13.112 95.0599 5.16555 96.3403L0.00121091 97.173L0.00068551 102.02L0.00015203 106.868L3.57583 106.496C12.8424 105.534 23.4937 101.548 30.3526 96.4759C32.2257 95.0899 34.0512 93.7805 34.4082 93.5647C34.8103 93.3214 35.8475 93.9254 37.1289 95.1484L39.2002 97.1244V102.593V108.062L44.1627 112.89C50.5639 119.118 51.0624 119.1 51.2706 112.639C51.4131 108.205 51.4973 107.898 52.7273 107.351C53.4451 107.031 54.0326 106.424 54.0326 106.001C54.0326 105.389 55.0216 105.203 58.9273 105.085C65.6268 104.881 65.6496 104.408 59.2605 98.1398L54.3186 93.2914H48.8804H43.4412L41.3207 91.42C40.1542 90.3901 39.2002 89.3576 39.2002 89.1252C39.2002 88.9534 39.8962 87.9012 40.8889 86.5452C41.2438 86.0608 41.6364 85.5376 42.0485 85.0024C49.8832 74.8275 53.7979 61.1939 52.5001 48.6062Z" fill="#021686"/>
</svg>
