<svg width="74" height="51" viewBox="0 0 74 51" fill="none" xmlns="http://www.w3.org/2000/svg">
<path fill-rule="evenodd" clip-rule="evenodd" d="M60.4333 48.1474V2.46909H70.3V48.1474H60.4333ZM41.9333 48.1474V12.3455H51.8V48.1474H41.9333ZM23.4333 48.1474V22.2219H33.3V48.1474H23.4333ZM4.93333 48.1474V33.3328H14.8V48.1474H4.93333ZM72.7666 48.1474V0H57.9667V48.1474H54.2667V9.87638H39.4667V48.1474H35.7667V19.7528H20.9667V48.1474H17.2667V30.8637H2.46666V48.1474H1.23333C0.55253 48.1474 0 48.6992 0 49.3819C0 50.0646 0.55253 50.6164 1.23333 50.6164H2.46666H17.2667H20.9667H35.7667H39.4667H54.2667H57.9667H72.7666C73.4475 50.6164 74 50.0646 74 49.3819C74 48.6992 73.4475 48.1474 72.7666 48.1474Z" fill="#001585"/>
</svg>
