<svg width="50" height="50" viewBox="0 0 50 50" fill="none" xmlns="http://www.w3.org/2000/svg">
<path d="M15.6379 2.44277C14.8663 0.596934 12.8545 -0.379699 10.9403 0.137917L10.4032 0.284412C4.09426 2.00329 -1.29666 8.11701 0.275696 15.559C3.89894 32.65 17.3469 46.0983 34.4377 49.7216C41.8893 51.3037 47.9931 45.903 49.712 39.5939L49.8585 39.0568C50.3858 37.1328 49.3995 35.1209 47.5634 34.3591L38.061 30.4038C36.4495 29.7299 34.5842 30.1987 33.4709 31.5562L29.7011 36.1659C22.8355 32.7575 17.3079 27.0539 14.1339 20.0515L18.4505 16.5356C19.808 15.432 20.267 13.5666 19.6029 11.9454L15.6379 2.44277Z" fill="black"/>
</svg>
