<svg width="1617" height="1353" viewBox="0 0 1617 1353" fill="none" xmlns="http://www.w3.org/2000/svg">
<g opacity="0.16">
<path d="M946.668 278.707C779.632 201.643 581.085 273.144 503.198 438.4C425.311 603.657 497.574 800.099 664.61 877.163C831.646 954.226 1030.19 882.725 1108.08 717.469C1185.97 552.212 1113.7 355.77 946.668 278.707Z" stroke="#707070"/>
<path d="M884.89 409.784C717.853 332.72 519.418 403.986 441.669 568.949C363.921 733.913 436.294 930.119 603.331 1007.18C770.368 1084.25 968.802 1012.98 1046.55 848.017C1124.3 683.054 1051.93 486.848 884.89 409.784Z" stroke="#707070"/>
<path d="M584.667 271.272C417.63 194.208 219.195 265.474 141.446 430.438C63.6974 595.402 136.071 791.608 303.107 868.672C470.144 945.736 668.579 874.47 746.327 709.506C824.076 544.543 751.704 348.337 584.667 271.272Z" stroke="#707070"/>
</g>
<path fill-rule="evenodd" clip-rule="evenodd" d="M706.577 443.097C704.984 442.616 703.298 443.502 702.811 445.078L699.32 456.376C698.833 457.951 699.73 459.619 701.323 460.101L712.728 463.551C714.322 464.033 716.008 463.147 716.495 461.571L719.986 450.273C720.473 448.697 719.576 447.029 717.983 446.547L706.577 443.097Z" fill="#588FFF"/>
<path fill-rule="evenodd" clip-rule="evenodd" d="M1596.14 845.872C1594.55 845.39 1592.86 846.277 1592.38 847.853L1588.89 859.151C1588.4 860.726 1589.3 862.394 1590.89 862.876L1602.29 866.326C1603.89 866.808 1605.57 865.921 1606.06 864.346L1609.55 853.048C1610.04 851.472 1609.14 849.804 1607.55 849.322L1596.14 845.872Z" fill="#588FFF"/>
<path fill-rule="evenodd" clip-rule="evenodd" d="M1053.18 1019.91C1052.81 1018.3 1051.19 1017.3 1049.57 1017.67L1037.93 1020.33C1036.31 1020.7 1035.3 1022.3 1035.67 1023.91L1038.36 1035.42C1038.73 1037.02 1040.35 1038.02 1041.98 1037.65L1053.61 1034.99C1055.23 1034.62 1056.24 1033.02 1055.87 1031.42L1053.18 1019.91Z" fill="#FF761B"/>
<path fill-rule="evenodd" clip-rule="evenodd" d="M1367.44 766.943C1368.33 765.546 1367.9 763.705 1366.48 762.831L1356.36 756.572C1354.95 755.699 1353.09 756.123 1352.2 757.52L1345.88 767.54C1344.99 768.937 1345.42 770.778 1346.84 771.651L1356.96 777.91C1358.37 778.784 1360.23 778.359 1361.12 776.962L1367.44 766.943Z" fill="#825EEE"/>
<path fill-rule="evenodd" clip-rule="evenodd" d="M603.883 831.494C602.747 830.288 600.838 830.221 599.621 831.345L595.811 834.859C594.594 835.983 594.528 837.871 595.664 839.077L599.213 842.842C600.35 844.048 602.258 844.115 603.476 842.991L607.285 839.477C608.503 838.353 608.569 836.465 607.432 835.259L603.883 831.494Z" fill="#282A5B"/>
</svg>
