<svg width="367" height="591" viewBox="0 0 367 591" fill="none" xmlns="http://www.w3.org/2000/svg">
<g clip-path="url(#clip0_8_60)">
<path d="M183.08 425.761C184.765 423.939 186.905 422.696 189.194 421.68C194.93 419.134 200.913 417.263 207.052 415.839C214.086 414.21 221.187 412.969 228.403 412.368C229.522 412.274 230.656 412.381 231.785 412.39C231.808 412.561 231.839 412.734 231.863 412.905C231.264 413.04 230.673 413.254 230.063 413.306C219.93 414.186 209.986 415.994 200.238 418.811C195.888 420.068 191.681 421.697 187.682 423.768C186.674 424.289 185.814 425.057 184.85 425.662C184.399 425.944 183.876 426.119 183.388 426.339C183.281 426.151 183.18 425.96 183.08 425.761Z" fill="black" fill-opacity="0.75"/>
<path d="M223.552 418.749C228.21 416.059 233.626 415.112 238.813 413.136C236.134 410.67 232.747 409.464 230.392 406.71C232.064 406.932 238.186 410.687 241.706 413.575C238.523 414.566 235.504 415.466 232.509 416.441C229.588 417.395 226.7 418.425 223.797 419.42C223.713 419.193 223.633 418.971 223.552 418.749Z" fill="black" fill-opacity="0.75"/>
<path d="M160.981 511.539C162.291 511.828 162.323 512.749 162.197 513.77C162.13 514.328 161.912 514.988 162.12 515.443C163.129 517.605 162.213 519.147 160.563 520.512C160.273 520.756 159.969 520.975 159.708 521.177C159.659 521.382 159.579 521.534 159.61 521.663C160.502 525.476 157.717 528.415 154.307 529.291C152.584 529.732 150.875 530.033 149.083 529.732C146.382 529.283 144.231 528.255 143.724 525.313C141.595 524.946 139.248 525.162 137.981 523.023C137.284 521.842 136.772 520.616 137.427 519.276C134.703 516.834 134.643 516.36 136.526 512.537C135.301 509.829 134.113 507.106 132.833 504.428C132.439 503.607 132.131 502.743 130.828 502.565C123.438 501.568 118.376 497.422 115.052 491.234C111.653 484.91 110.596 478.175 112.473 471.254C114.172 464.983 118.321 460.335 123.89 456.753C130.173 452.711 137.018 451.561 144.364 452.836C149.603 453.75 154.484 455.56 158.392 459.128C165.076 465.224 167.852 472.731 166.737 481.545C166.022 487.169 163.542 491.976 159.548 496.112C158.982 496.699 158.555 497.405 158.053 498.064C158.888 500.069 159.76 501.958 160.466 503.901C161.332 506.276 161.077 506.842 158.661 507.833C157.327 508.382 155.904 508.752 154.494 509.109C149.518 510.371 144.552 511.659 139.542 512.775C138.046 513.109 137.342 514.103 136.671 515.096C135.829 516.356 137.017 517.924 138.739 517.933C139.496 517.939 140.287 517.805 141.011 517.581C146.788 515.818 152.693 514.377 158.1 511.646C159.118 511.132 160.145 510.575 161.026 509.877C161.666 509.37 162.071 508.594 162.541 507.991C163.159 508.821 163.167 509.439 162.334 510.338C161.938 510.767 161.48 511.148 161.054 511.549C154.287 514.775 147.257 517.334 139.879 518.938C138.817 519.172 138.477 519.639 138.769 520.828C139.613 520.804 140.46 520.906 141.239 520.728C145.722 519.714 150.232 518.755 154.645 517.513C156.521 516.987 158.296 515.939 159.94 514.882C161.069 514.167 162.019 513.044 160.981 511.539ZM151.345 508.685C153.569 508.099 155.814 507.603 157.992 506.897C159.761 506.322 159.94 505.861 159.348 504.273C158.861 502.958 158.362 501.623 157.666 500.398C156.552 498.446 157.047 496.864 158.566 495.401C158.836 495.137 159.107 494.873 159.353 494.59C165.778 487.247 167.485 478.922 164.368 469.892C161.527 461.672 155.299 456.663 146.661 454.493C136.444 451.924 127.425 454.139 119.934 461.369C116.397 464.783 113.829 468.763 113.156 473.698C112.135 481.141 113.675 487.944 118.334 494.045C121.494 498.18 125.604 500.799 130.952 501.399C132.292 501.55 133.044 502.142 133.546 503.24C134.38 505.068 135.22 506.892 136.097 508.703C136.641 509.828 137.255 510.915 137.863 512.069C140.11 511.445 142.156 510.881 144.154 510.326C144.179 510.071 144.248 509.911 144.202 509.791C142.767 506.051 141.438 502.271 139.843 498.595C138.364 495.19 135.993 492.4 132.651 490.434C131.475 489.741 130.322 488.978 129.267 488.123C126.059 485.524 126.375 482.863 130.057 480.954C130.258 480.849 130.472 480.756 130.687 480.674C132.73 479.885 134.971 479.746 137.003 478.841C137.744 478.513 138.83 478.78 139.726 478.93C140.306 479.027 140.842 479.402 141.235 479.584C143.854 476.337 144.985 476.23 148.954 478.59C149.385 478.351 149.841 478.086 150.307 477.84C152.459 476.717 153.867 477.135 155.058 479.215C156.267 481.336 155.524 483.277 154.318 485.05C153.231 486.648 152.014 488.217 150.617 489.563C148.272 491.827 147.969 494.444 148.648 497.341C149.537 501.073 150.426 504.805 151.345 508.685ZM133.572 481.023C132.58 481.306 131.755 481.44 131.027 481.767C127.689 483.269 127.424 485.135 130.265 487.411C131.442 488.357 132.746 489.163 134.039 489.962C136.692 491.606 138.769 493.766 140.133 496.473C141.298 498.796 142.262 501.212 143.227 503.62C144.042 505.668 144.729 507.767 145.528 510.008C147.214 509.625 148.672 509.292 150.228 508.937C150.093 508.206 150.011 507.63 149.871 507.067C149.093 503.983 148.248 500.918 147.519 497.827C146.738 494.505 146.861 491.347 149.709 488.811C150.267 488.311 150.78 487.747 151.219 487.148C152.187 485.825 153.15 484.492 154.019 483.103C154.653 482.092 154.552 480.968 154.113 479.885C153.63 478.687 152.71 478.157 151.649 478.447C150.21 478.833 149.65 479.638 149.869 481.001C149.918 481.291 150.026 481.58 150.041 481.87C150.1 482.935 149.574 483.576 148.689 483.533C147.779 483.492 147.278 482.844 147.419 481.827C147.471 481.462 147.568 481.097 147.698 480.752C148.047 479.816 147.625 479.213 146.854 478.689C145.143 477.525 143.703 478.019 142.854 480.101C143.331 480.674 143.834 481.226 144.276 481.818C144.797 482.519 145.158 483.372 144.42 484.035C143.918 484.485 142.947 484.947 142.446 484.762C141.808 484.525 141.234 483.702 140.994 483.017C140.746 482.297 140.928 481.435 140.926 480.498C139.459 480.156 138.105 479.366 136.648 480.326C137.254 481.335 137.889 482.182 138.293 483.118C138.79 484.264 138.335 485.297 137.447 486.138C136.631 486.913 135.126 487.177 134.237 486.744C133.084 486.178 132.933 485.145 133.015 484.085C133.086 483.214 133.322 482.354 133.572 481.023ZM161.279 515.681C154.494 519.856 146.655 520.65 138.999 522.376C140.163 524.059 141.876 524.117 143.519 523.873C147.152 523.323 150.773 522.654 154.374 521.908C155.783 521.615 157.155 521.063 158.464 520.471C160.816 519.395 161.622 517.978 161.279 515.681ZM144.979 525.125C145.147 526.922 146.3 527.805 147.977 528.309C150.618 529.11 153.158 528.697 155.585 527.681C157.838 526.737 159.042 524.147 158.561 522.105C154.046 523.111 149.524 524.115 144.979 525.125ZM136.495 482.269C136.36 482.198 135.816 481.7 135.265 481.695C134.98 481.695 134.618 482.542 134.417 483.054C134.257 483.447 134.16 483.945 134.272 484.339C134.408 484.841 134.678 485.554 135.065 485.682C135.51 485.829 136.286 485.57 136.67 485.23C137.505 484.488 137.46 483.555 136.495 482.269ZM142.508 483.909C143.826 482.607 143.809 482.547 142.04 481.669C142.196 482.413 142.315 482.995 142.508 483.909Z" fill="black" fill-opacity="0.75"/>
<path d="M95.9156 518.693C93.1171 521.939 90.5192 525.276 88.8912 529.205C87.2857 533.083 86.4309 537.122 86.1217 541.277C85.8097 545.472 85.8071 549.654 86.5109 553.901C88.9297 549.585 89.9326 544.595 93.4539 540.86C91.0329 546.985 88.1256 552.917 86.2795 559.549C85.3592 556.348 82.4203 555.009 80.553 552.77C79.8994 551.991 79.2069 551.246 78.7221 550.296C81.25 551.293 82.6443 553.59 85.1042 555.221C85.0881 554.348 85.1136 553.731 85.0526 553.124C84.4402 546.688 84.5297 540.289 86.0821 533.96C87.3955 528.607 89.8589 523.815 93.7135 519.711C94.4712 518.917 94.4577 518.905 95.9156 518.693Z" fill="black" fill-opacity="0.75"/>
<path d="M234.077 498.314C230.056 498.932 226.385 499.496 222.491 500.095C223.372 498.483 224.968 498.689 226.242 498.357C227.629 497.994 229.053 497.782 230.973 497.403C226.991 496.229 223.511 495.101 219.976 494.187C215.821 493.11 211.642 492.071 207.415 491.281C204.485 490.736 201.47 490.435 198.485 490.402C196.648 490.38 194.805 491.072 192.848 491.466C192.559 490.808 193.222 490.516 193.683 490.261C195.79 489.118 198.143 488.999 200.426 489.237C204.09 489.616 207.797 490.003 211.351 490.894C218.045 492.568 224.646 494.605 231.289 496.479C231.406 496.509 231.564 496.409 231.98 496.299C230.98 493.701 229.092 491.55 228.131 488.974C231.307 491.356 232.743 494.734 234.077 498.314Z" fill="black" fill-opacity="0.75"/>
<path d="M160.333 393.561C162.853 390.007 165.369 386.468 167.986 382.777C169.369 384.484 169.682 386.709 170.646 388.63C171.623 390.574 172.439 392.59 173.115 394.67C171.314 392.928 170.287 390.77 169.167 388.06C165.174 399.175 161.881 409.926 161.922 421.399C160.582 421.456 160.731 420.593 160.763 420.043C160.917 417.388 161.056 414.729 161.389 412.096C162.37 404.345 164.825 396.945 167.368 389.572C167.608 388.874 167.996 388.221 168.32 387.553C168.727 386.712 168.635 385.989 167.769 385.372C165.43 388.172 163.901 391.564 160.888 393.824C160.829 393.87 160.627 393.709 160.333 393.561Z" fill="black" fill-opacity="0.75"/>
<path d="M101.649 456.612C100.519 457.017 99.968 456.244 99.2787 455.878C94.6373 453.42 90.0627 450.844 85.3341 448.549C82.4794 447.163 79.3884 446.219 76.0538 444.946C76.4044 446.947 77.945 448.18 77.6249 450.318C76.1253 449.043 75.89 447.41 74.9289 446.262C73.9514 445.097 73.0558 443.849 71.9313 442.836C70.7799 441.8 69.3967 440.993 68.0106 440.017C74.6892 440.336 81.2188 440.649 87.7974 440.966C86.2818 441.895 86.0975 441.941 80.358 441.843C77.8281 441.799 75.3055 441.625 72.6631 441.504C73.3283 442.797 74.2757 443.439 75.6342 443.809C84.0648 446.119 91.768 449.955 99.1513 454.413C100.068 454.971 101.184 455.399 101.649 456.612Z" fill="black" fill-opacity="0.75"/>
<path d="M33.6148 519.976C35.2805 518.824 36.8812 517.575 38.6177 516.53C49.0826 510.258 60.2382 505.278 71.4689 500.434C71.6162 500.371 71.881 500.548 72.161 500.64C72.0038 501.774 70.9608 501.94 70.2031 502.284C66.8708 503.795 63.5006 505.232 60.1426 506.701C52.3537 510.106 44.997 514.274 37.6467 518.463C36.4196 519.169 35.4579 520.35 33.6148 519.976Z" fill="black" fill-opacity="0.75"/>
<path d="M28.661 523.592C29.4549 519.891 35.6548 512.469 41.772 507.701C41.5353 508.999 41.0187 509.755 39.6093 511.235C37.2232 513.737 34.8429 516.25 32.538 518.822C31.6994 519.756 31.0851 520.877 30.154 522.218C34.425 522.235 38.0979 521.049 41.9162 520.137C41.8872 520.616 41.9407 520.98 41.8557 521.015C37.7105 522.723 33.3383 523.384 28.661 523.592Z" fill="black" fill-opacity="0.75"/>
<path d="M173.895 464.312C178.814 459.947 183.622 455.429 190.383 453.698C190.491 453.822 190.606 453.948 190.714 454.073C190.465 454.363 190.273 454.812 189.951 454.914C184.344 456.773 180.103 460.596 175.586 464.027C175.183 464.333 174.69 464.536 174.239 464.786C174.129 464.625 174.014 464.467 173.895 464.312Z" fill="black" fill-opacity="0.75"/>
<path d="M132.548 443.565C131.959 441.399 131.246 439.257 130.82 437.064C130.311 434.459 130.027 431.812 129.711 429.177C129.631 428.505 129.55 427.668 130.889 427.433C130.556 432.978 132.735 438.108 133.126 443.461C132.933 443.492 132.743 443.527 132.548 443.565Z" fill="black" fill-opacity="0.75"/>
<path d="M84.9676 469.135C85.5064 469.02 86.0523 468.774 86.5776 468.813C90.6741 469.155 94.7283 469.68 98.4904 471.356C98.4613 471.505 98.4322 471.654 98.3981 471.806C93.9698 471.077 89.5386 470.343 85.1103 469.614C85.0621 469.457 85.0109 469.295 84.9676 469.135Z" fill="black" fill-opacity="0.75"/>
<path d="M188.998 486.324C188.593 486.498 188.266 486.755 187.955 486.744C185.999 486.687 176.003 483.696 174.735 482.839C176.362 482.634 187.356 485.274 188.998 486.324Z" fill="black" fill-opacity="0.75"/>
<path d="M158.523 444.534C160.306 440.489 163.973 436.876 167.144 436.183C166.792 437.73 165.039 437.737 164.318 438.79C163.532 439.943 162.452 440.916 161.5 441.97C160.621 442.947 159.743 443.915 158.864 444.891C158.746 444.773 158.636 444.656 158.523 444.534Z" fill="black" fill-opacity="0.75"/>
<path d="M105.456 492.875C103.122 496.212 100.335 498.696 97.7261 501.323C97.6201 501.432 97.2071 501.261 96.8939 501.213C97.9704 499.081 103.17 493.94 105.456 492.875Z" fill="black" fill-opacity="0.75"/>
<path d="M111.323 451.211C108.177 449.187 105.034 447.167 101.902 445.123C101.793 445.05 101.867 444.724 101.836 444.176C105.928 445.523 108.717 448.228 111.626 450.77C111.527 450.913 111.426 451.064 111.323 451.211Z" fill="black" fill-opacity="0.75"/>
</g>
<g clip-path="url(#clip1_8_60)">
<path d="M286.518 70.3433C285.377 69.4202 284.001 68.6673 283.153 67.5486C275.315 57.1202 264.118 49.7455 251.892 43.3466C240.997 37.6389 228.825 33.7125 215 32.301C209.619 31.7545 204.01 31.7004 197.986 31.3873C204.811 26.1346 212.466 21.8436 216.57 14.6331C210.183 19.3706 204.071 24.5389 197.34 28.7227C190.596 32.915 183.227 36.1401 175.496 40.1165C185.706 42.8718 197.587 43.4518 201.833 52.9616C203.883 47.1894 200.766 44.8163 184.274 38.7588C187.805 36.4128 190.98 34.4354 194.991 34.2379C217.529 33.107 236.324 38.1479 252.782 47.0768C262.396 52.2943 270.828 58.6678 278.114 65.9893C285.522 73.4258 291.963 81.5344 296.947 90.734C303.75 103.252 308.739 116.551 311.005 131.146C313.682 148.42 312.736 166.481 305.96 185.511C298.422 206.722 285.382 226.436 265.71 244.035C264.508 245.112 263.383 246.269 262.289 247.418C262.066 247.658 262.099 248.042 261.953 248.57C263.45 249.334 264.703 248.04 265.803 247.082C276.654 237.664 285.714 227.312 293.22 216.169C308.631 193.316 314.913 170.632 315.254 148.062C315.524 130.061 311.181 113.874 304.782 98.4993C303.658 95.801 301.631 93.5757 300.163 91.0548C299.531 89.9743 299.307 88.6479 298.891 87.449C294.778 81.7444 290.651 76.0483 286.518 70.3433Z" fill="black" fill-opacity="0.6"/>
</g>
<defs>
<clipPath id="clip0_8_60">
<rect width="239.421" height="133.174" fill="white" transform="matrix(0.874566 -0.484907 0.515246 0.857042 0 475.918)"/>
</clipPath>
<clipPath id="clip1_8_60">
<rect width="124.545" height="222.593" fill="white" transform="matrix(0.831485 -0.555547 -0.586679 -0.809819 262.591 249.451)"/>
</clipPath>
</defs>
</svg>
