<svg width="196" height="118" viewBox="0 0 196 118" fill="none" xmlns="http://www.w3.org/2000/svg">
<g clip-path="url(#clip0_33_2)">
<path d="M184.403 48.6062C182.082 26.1107 165.71 7.44979 143.489 1.97364C140.683 1.28224 136.93 0.555449 135.146 0.357833L131.903 0L131.903 4.854L131.904 9.70798L137.068 10.5404C151.692 12.8971 163.35 21.2789 170.009 34.2241C177.784 49.336 175.772 67.2491 164.769 80.8704L163.725 82.1642L159.638 78.1854L155.55 74.207L156.947 72.2336C162.617 64.2179 164.466 53.5347 161.748 44.4951C158.178 32.6255 147.074 23.3143 134.419 21.5802L131.903 21.2354V25.3627V29.4904L134.851 30.0686C147.279 32.5072 156.275 44.9682 154.246 56.9329C153.693 60.1929 150.335 67.9318 149.474 67.9318C149.265 67.9318 147.328 66.1964 145.172 64.0756L141.252 60.2188L142.007 57.9944C144.482 50.7036 140.755 43.5718 133.39 41.5086L131.903 41.0917V53.4768C131.903 60.2882 131.98 65.8616 132.074 65.8616C132.167 65.8616 133.385 65.4812 134.78 65.017L137.317 64.1729L141.348 68.1108C145.21 71.8843 145.336 72.0814 144.335 72.807C142.238 74.3296 137.648 76.2627 134.811 76.8195L131.903 77.3904V81.4593C131.903 83.6703 131.878 84.8249 132.447 85.2917C133.085 85.815 134.468 85.4708 137.47 84.7794C141.613 83.8245 145.064 82.3573 148.676 80.0149L151.595 78.1222L155.654 82.1026L159.714 86.0826L158.389 87.1083C152.063 92.0074 145.015 95.0599 137.068 96.3403L131.904 97.173L131.903 102.02L131.903 106.868L135.478 106.496C144.745 105.534 155.396 101.548 162.255 96.4759C164.128 95.0899 165.954 93.7805 166.311 93.5647C166.713 93.3214 167.75 93.9254 169.031 95.1484L171.103 97.1244V102.593V108.062L176.065 112.89C182.466 119.118 182.965 119.1 183.173 112.639C183.316 108.205 183.4 107.898 184.63 107.351C185.348 107.031 185.935 106.424 185.935 106.001C185.935 105.389 186.924 105.203 190.83 105.085C197.529 104.881 197.552 104.408 191.163 98.1398L186.221 93.2914H180.783H175.344L173.223 91.42C172.057 90.3901 171.103 89.3576 171.103 89.1252C171.103 88.9534 171.799 87.9012 172.791 86.5452C173.146 86.0608 173.539 85.5376 173.951 85.0024C181.786 74.8275 185.7 61.1939 184.403 48.6062Z" fill="#021686"/>
<path fill-rule="evenodd" clip-rule="evenodd" d="M127.665 68.0632C127.665 65.0816 125.949 61.4811 123.797 59.9486C121.922 58.6129 115.511 58.233 113.097 59.3141C109.917 60.7405 108.058 64.164 108.077 68.5621C108.093 72.5244 109.559 75.1443 114.646 80.3119C119.33 85.0682 119.903 86.1219 119.624 89.4585C119.486 91.0986 119.229 91.5105 118.263 91.6451C116.769 91.8521 116.011 90.1297 116.011 86.5292V83.9756H112.038H108.065V87.6678C108.065 94.6401 110.132 97.9183 115.232 99.033C121.837 100.477 126.413 97.8898 127.664 92.0027C128.455 88.2769 128.114 83.7453 126.86 81.3424C126.353 80.3709 123.705 77.3179 120.974 74.5579C116.964 70.5034 116.011 69.2437 116.011 67.9949C116.011 66.8786 116.32 66.3527 117.124 66.1038C118.561 65.6582 119.074 66.2151 119.284 68.4493L119.454 70.2607L123.559 70.4118L127.665 70.563V68.0632Z" fill="#021686"/>
<path fill-rule="evenodd" clip-rule="evenodd" d="M126.18 12.2869C124.693 9.75327 122.357 8.12683 119.189 7.41925C116.151 6.74049 114.758 6.77335 111.625 7.59614C108.707 8.36335 106.848 9.88012 105.232 12.813C104.137 14.8008 104.092 15.5024 104.092 30.4095C104.092 46.7536 104.192 47.5618 106.648 51.042C108.033 53.0053 112.463 54.9818 115.481 54.9854C119.433 54.989 121.914 54.0414 124.307 51.6131C127.533 48.3416 127.783 46.6222 127.575 29.1157C127.405 14.8231 127.362 14.301 126.18 12.2869ZM114.354 16.5162C113.779 17.1935 113.627 20.1997 113.627 30.9281C113.627 45.205 113.784 46.1946 116.054 46.1946C117.849 46.1946 118.211 43.1369 118.033 29.4841C117.892 18.7683 117.734 16.5748 117.07 16.1654C115.914 15.4523 115.176 15.5483 114.354 16.5162Z" fill="#021686"/>
<path fill-rule="evenodd" clip-rule="evenodd" d="M101.248 20.262C101.22 12.4741 99.6183 9.04537 95.4859 7.92437C94.392 7.62772 89.9815 7.38359 85.6838 7.38209L77.8703 7.37904V30.9273V54.4756H82.9234H87.977L87.8234 43.8654C87.6734 33.4655 87.692 33.2552 88.7562 33.2557C90.9514 33.2567 91.1135 34.028 91.1135 44.487V54.4756H95.9107H100.708L100.546 43.5636L100.384 32.6517L98.7835 31.2558L97.1832 29.8604L98.6924 28.6388C100.795 26.9375 101.267 25.39 101.248 20.262ZM87.9351 20.5764C87.9351 24.4757 88.0443 24.9755 88.8934 24.9755C90.9996 24.9755 91.7508 23.7782 91.7836 20.3677C91.817 16.9132 91.3641 16.2001 89.127 16.1849C87.9839 16.1778 87.9351 16.3567 87.9351 20.5764Z" fill="#021686"/>
<path fill-rule="evenodd" clip-rule="evenodd" d="M105.681 66.6379V62.7563V58.8748L97.7044 58.7324C93.3172 58.6543 89.5625 58.7511 89.3612 58.9482C89.1593 59.1454 88.9946 68.2335 88.9946 79.1454V98.9844H97.7351H106.476V95.1028V91.2212H101.952H97.429L97.582 86.6927L97.7351 82.1642L101.576 82.0121L105.416 81.8599V78.0011V74.1423H101.443H97.4703V70.5412V66.9402L101.576 66.789L105.681 66.6379Z" fill="#021686"/>
<path fill-rule="evenodd" clip-rule="evenodd" d="M85.3283 62.5819C84.6985 61.3103 83.5797 60.0294 82.7623 59.6423C81.1525 58.8804 67.2741 58.2511 66.6135 58.9099C66.3953 59.1278 66.2162 68.2335 66.2162 79.1454V98.9844H70.4541H74.6919V89.9274C74.6919 81.5509 74.7634 80.8704 75.6454 80.8704C77.6499 80.8704 77.8703 81.8304 77.8703 90.5484V98.9844H81.8432H85.8162V90.2105C85.8162 81.1307 85.4343 79.0802 83.6401 78.5238C82.8063 78.265 82.9006 78.0389 84.3828 76.7455C86.0509 75.2902 86.0843 75.1722 86.2628 70.0496C86.4191 65.5733 86.2866 64.5165 85.3283 62.5819ZM74.6919 70.0019C74.6919 73.5073 74.7343 73.6247 75.9977 73.6247C77.563 73.6247 78.4 72.2993 78.4 69.8198C78.4 67.1058 77.9407 66.3791 76.2244 66.3791H74.6919V70.0019Z" fill="#021686"/>
<path fill-rule="evenodd" clip-rule="evenodd" d="M72.6678 12.4448C71.9145 10.9503 70.6834 9.54729 69.4894 8.822C67.7064 7.73888 66.8085 7.62264 58.9324 7.46396L50.3243 7.29007V30.9273V54.5646L58.9754 54.3908C67.5792 54.2179 67.637 54.2086 69.6325 52.7201C70.7364 51.8967 72.1476 50.1502 72.7685 48.8386C73.8422 46.5693 73.8973 45.6859 73.8973 30.6685C73.8973 15.2013 73.8724 14.8344 72.6678 12.4448ZM59.8595 30.9273C59.8595 46.0119 59.8727 46.1948 60.9539 46.1948C61.2135 46.1948 61.5382 46.1498 61.8687 46.0755C62.3052 45.977 62.7523 45.8269 63.0728 45.6591C64.0475 45.1496 64.0973 44.4324 64.0973 30.9273C64.0973 17.4221 64.0475 16.7049 63.0728 16.1955C62.5092 15.9008 61.5557 15.6597 60.9539 15.6597C59.8727 15.6597 59.8595 15.8427 59.8595 30.9273Z" fill="#021686"/>
<path fill-rule="evenodd" clip-rule="evenodd" d="M62.55 62.5819C61.9201 61.3103 60.8013 60.0294 59.9839 59.6423C58.3741 58.8804 44.4958 58.2511 43.8351 58.9099C43.6168 59.1278 43.4378 68.2335 43.4378 79.1454V98.9844H47.6757H51.9135V89.9274C51.9135 81.5509 51.9849 80.8704 52.8669 80.8704C54.8715 80.8704 55.0919 81.8304 55.0919 90.5484V98.9844H59.0649H63.0378V89.8943V80.8041L61.5811 79.414L60.1243 78.0239L61.7135 76.6441C63.2508 75.3088 63.3085 75.0946 63.4844 70.0496C63.6407 65.5733 63.5082 64.5165 62.55 62.5819ZM51.9135 70.0019C51.9135 73.5073 51.9559 73.6247 53.2193 73.6247C54.8212 73.6247 55.6216 72.2905 55.6216 69.6221C55.6216 67.3387 54.8848 66.3791 53.1319 66.3791C51.9766 66.3791 51.9135 66.5665 51.9135 70.0019Z" fill="#021686"/>
<path fill-rule="evenodd" clip-rule="evenodd" d="M46.356 16.1702C46.5381 15.8816 46.5221 13.7857 46.3188 11.5123L45.9499 7.37904H36.4831H27.0162V30.9273V54.4756H37.1018H47.1873L47.0342 49.947L46.8811 45.4185L41.9811 45.2694L37.0811 45.1208V39.9858V34.8508L41.4513 34.7002L45.8216 34.5501L45.9748 30.0216L46.1278 25.4931H41.6045H37.0811V21.0939V16.6948H41.5527C44.0121 16.6948 46.1734 16.4588 46.356 16.1702Z" fill="#021686"/>
<path fill-rule="evenodd" clip-rule="evenodd" d="M18.0108 66.8967V62.7563V58.616H9.00541H0V62.7563V66.8967H2.38378H4.76757V82.9405V98.9844H9.00541H13.2432V82.9405V66.8967H15.627H18.0108Z" fill="#021686"/>
<path fill-rule="evenodd" clip-rule="evenodd" d="M40.1619 77.4965C39.97 62.642 39.7739 61.8962 35.4998 59.7805C31.6588 57.878 25.6854 58.3769 22.9245 60.83C20.3327 63.1321 20.0497 65.107 20.2287 79.6459L20.3948 93.1113L21.8495 95.2565C23.5116 97.7097 25.4857 98.87 28.7344 99.3053C33.8429 99.9895 38.3735 97.2491 39.6818 92.6838C40.135 91.1001 40.2788 86.5602 40.1619 77.4965ZM29.1354 66.3667C28.4779 66.7719 28.3133 68.7671 28.1804 77.8971C28.0045 89.9481 28.3133 91.9251 30.3282 91.6451L31.5191 91.48L31.6614 79.3824C31.8176 66.1385 31.5703 64.8658 29.1354 66.3667Z" fill="#021686"/>
<path fill-rule="evenodd" clip-rule="evenodd" d="M23.7033 23.383C24.1151 14.8192 22.3728 10.3949 17.7878 8.36056C16.0129 7.57312 14.2784 7.39979 8.07837 7.39068L0.529724 7.37904V30.9273V54.4756H5.29729H10.0649V45.1597V35.8439H13.2086C20.7329 35.8439 23.2481 32.858 23.7033 23.383ZM10.1792 21.7409C10.3209 26.9724 10.3928 27.2954 11.3892 27.1458C13.3757 26.8481 14.3027 25.1059 14.3027 21.6696C14.3027 17.973 13.3343 16.1773 11.3411 16.1773H10.0286L10.1792 21.7409Z" fill="#061982"/>
</g>
<defs>
<clipPath id="clip0_33_2">
<rect width="196" height="118" fill="white"/>
</clipPath>
</defs>
</svg>
